<svg xmlns="http://www.w3.org/2000/svg" viewBox="0 0 320 80"><title>ZadDesh</title><svg xmlns="http://www.w3.org/2000/svg" x="8" y="8" width="64" height="64" viewBox="0 0 64 64"><title>ZadDesh</title><defs><linearGradient id="surface" x2="1" y2="1"><stop stop-color="#293e38"/><stop offset="1" stop-color="#101c1b"/></linearGradient><linearGradient id="ink" x2="1" y2="1"><stop stop-color="#e5ffd1"/><stop offset="1" stop-color="#a6e674"/></linearGradient></defs><rect x="1" y="1" width="62" height="62" rx="17" fill="url(#surface)" stroke="#577466" stroke-width="1.5"/><path d="M17 18h31v6L25 42h16v7H15v-7l23-17H17z" fill="url(#ink)"/><rect x="44" y="43" width="8" height="6" rx="1" fill="#e5ffd1"/></svg><g transform="translate(86 0)" fill="none" stroke="#6eab4b" stroke-width="6" stroke-linecap="square" stroke-linejoin="round"><path d="M15 18h42L15 60h42M95 37c0-18-30-18-30 4v5c0 24 30 16 30 3V30v30M137 17v43-20c0-17-29-17-29 3v4c0 21 29 17 29-4M150 62h24M188 62h24"/></g></svg>